<svg height="512pt" viewBox="0 -31 512.00112 512" width="512pt" xmlns="http://www.w3.org/2000/svg"><path d="m301 360.449219h169.417969l-17.144531-30h-203.929688c10.40625 17.851562 29.542969 30 51.65625 30zm0 0"/><path d="m242.976562 7.011719-97.496093 171.621093c35.734375-17.984374 76.777343-28.183593 110.519531-28.183593 41.355469 0 75 33.648437 75 75 0 8.292969-6.707031 15-15 15h-15c-33.089844 0-60 26.910156-60 60h195.132812l-167.109374-293.4375c-5.332032-9.347657-20.714844-9.347657-26.046876 0zm0 0"/><path d="m487.5625 390.449219h-186.5625c-52.0625 0-90-43.671875-90-90 0-48.777344 38.992188-88.605469 87.4375-89.96875-6.183594-17.476563-22.867188-30.03125-42.4375-30.03125-46.585938 0-114.621094 23.792969-146.972656 61.972656l-107.050782 185.589844c-2.648437 4.640625-2.636718 10.339843.046876 14.96875 2.691406 4.628906 7.628906 7.472656 12.976562 7.472656h482c5.347656 0 10.285156-2.84375 12.980469-7.472656 2.679687-4.628907 2.695312-10.328125.042969-14.96875zm0 0"/></svg>